<?xml version="1.0" standalone="no"?>
<!DOCTYPE svg PUBLIC "-//W3C//DTD SVG 20010904//EN"
 "http://www.w3.org/TR/2001/REC-SVG-20010904/DTD/svg10.dtd">
<svg version="1.0" xmlns="http://www.w3.org/2000/svg"
 width="652.000000pt" height="136.000000pt" viewBox="0 0 652.000000 136.000000"
 preserveAspectRatio="xMidYMid meet">
<metadata>
Created by potrace 1.16, written by Peter Selinger 2001-2019
</metadata>
<g transform="translate(0.000000,136.000000) scale(0.100000,-0.100000)"
fill="#000000" stroke="none">
<path d="M2212 1249 c-38 -8 -77 -41 -99 -83 -20 -38 -12 -105 16 -145 l22
-30 -23 -5 c-13 -3 -59 -8 -103 -11 -44 -3 -104 -8 -132 -11 l-53 -6 -67 -115
c-39 -67 -76 -118 -88 -123 -23 -9 -79 -86 -67 -94 4 -2 28 -7 53 -11 42 -6
47 -5 63 19 9 15 21 24 26 21 5 -3 14 4 21 17 9 16 9 23 0 26 -20 7 -13 20 60
117 l71 95 84 0 84 0 0 -215 0 -215 -123 0 -122 0 -185 -185 -185 -185 113 0
c87 0 113 3 110 12 -3 7 -18 14 -34 16 -16 2 -33 7 -37 11 -4 4 81 75 190 156
224 168 199 159 427 169 l130 6 -97 -99 c-53 -54 -97 -100 -97 -103 0 -7 127
-98 138 -98 22 0 21 19 -3 62 l-24 44 109 109 110 109 -27 28 c-24 25 -33 28
-95 28 l-68 0 0 105 c0 99 2 107 30 154 28 45 34 49 78 56 26 3 56 9 68 11 35
9 44 -32 44 -202 l0 -155 68 3 67 3 1 150 c2 171 11 205 65 224 72 25 132 2
148 -57 6 -20 11 -101 11 -179 l0 -143 66 0 66 0 -4 153 c-3 140 -5 157 -28
202 -35 68 -105 105 -196 105 l-64 0 0 80 c0 46 -4 80 -10 80 -11 0 -17 -21
-28 -100 l-7 -55 -167 -3 -168 -2 25 36 c43 63 27 161 -33 200 -34 22 -88 32
-130 23z"/>
<path d="M5871 1184 c-62 -79 43 -170 114 -99 51 50 16 125 -57 125 -28 0 -42
-7 -57 -26z"/>
<path d="M5357 993 c-4 -3 -7 -21 -7 -40 l0 -33 135 0 c74 0 135 -3 135 -7 0
-5 -68 -84 -150 -177 -124 -142 -147 -173 -139 -188 9 -17 27 -18 239 -18
l230 0 0 35 0 35 -140 0 c-77 0 -140 4 -140 9 0 9 236 287 263 310 10 8 17 28
17 47 l0 34 -218 0 c-120 0 -222 -3 -225 -7z"/>
<path d="M5870 765 l0 -235 65 0 65 0 -2 233 -3 232 -62 3 -63 3 0 -236z"/>
<path d="M3192 965 c-79 -40 -107 -94 -107 -205 0 -74 3 -91 27 -130 36 -62
92 -92 182 -98 64 -4 75 -1 109 22 l37 25 0 -24 c0 -24 3 -25 66 -25 l65 0 -3
158 c-4 186 -15 218 -92 267 -42 26 -59 30 -140 33 -83 3 -96 1 -144 -23z
m221 -85 c24 -27 27 -38 27 -100 0 -122 -36 -174 -121 -174 -41 0 -55 5 -77
27 -26 26 -27 32 -27 126 0 91 2 102 24 125 43 46 129 44 174 -4z"/>
<path d="M3787 974 c-122 -38 -190 -185 -141 -302 18 -45 67 -97 105 -113 32
-13 36 -24 15 -36 -26 -14 -46 -67 -46 -120 l0 -53 68 0 67 0 -3 60 c-3 52 -1
62 21 84 16 16 41 26 73 31 98 12 112 16 145 38 98 66 127 211 61 316 -42 69
-117 104 -230 108 -58 2 -103 -2 -135 -13z m203 -77 c43 -22 70 -74 70 -134 0
-76 -24 -121 -74 -144 -76 -35 -165 -17 -203 40 -18 27 -23 48 -23 98 0 74 18
116 58 137 33 19 138 20 172 3z"/>
<path d="M4376 975 c-109 -39 -161 -167 -121 -302 18 -62 75 -117 137 -133 64
-18 153 -9 181 18 30 28 37 28 37 -3 0 -24 2 -25 66 -25 l66 0 -4 148 c-3 122
-7 155 -25 193 -24 53 -70 92 -128 108 -55 15 -162 13 -209 -4z m188 -79 c45
-29 57 -155 21 -226 -23 -45 -52 -63 -99 -63 -87 0 -121 52 -114 174 6 104 43
143 131 134 21 -2 48 -10 61 -19z"/>
<path d="M4925 975 c-54 -19 -100 -72 -119 -136 -20 -66 -20 -92 -1 -157 30
-101 106 -152 224 -152 44 0 65 6 94 25 l37 26 0 -26 c0 -24 2 -25 65 -25 l65
0 0 131 c0 71 -5 150 -11 174 -15 61 -68 119 -126 139 -57 20 -174 20 -228 1z
m171 -70 c48 -20 68 -70 61 -152 -6 -81 -31 -124 -82 -141 -54 -18 -114 1
-134 43 -21 42 -25 142 -9 190 21 65 91 91 164 60z"/>
<path d="M997 845 c-213 -30 -400 -56 -415 -58 -15 -2 163 -5 396 -6 l422 -1
0 60 c0 33 -3 60 -7 59 -5 0 -183 -25 -396 -54z"/>
<path d="M1185 524 c-104 -18 -197 -36 -205 -38 -8 -2 84 -3 205 -2 l219 1 -1
23 c-2 48 -3 52 -15 51 -7 -1 -98 -16 -203 -35z"/>
<path d="M3474 339 c-3 -6 -1 -15 5 -19 7 -4 14 -27 16 -51 3 -42 4 -44 39
-47 26 -2 40 2 53 17 l17 21 22 -27 c19 -25 24 -26 48 -15 14 6 26 16 26 22 0
6 -7 6 -19 -1 -19 -13 -51 -6 -51 10 0 5 12 11 28 13 21 2 27 8 27 28 0 36
-32 39 -59 5 l-22 -27 -13 26 c-22 40 -101 71 -117 45z"/>
</g>
</svg>
